# xmcd
#
# Track frame offsets: 
#        150
#        17698
#        37175
#        57150
#        79490
#        98928
#        115915
#        132135
#        150063
#        171698
#        189055
#
# Disc length: 2776 seconds
#
# Revision: 2
# Processed by: cddbd v1.5PL3 Copyright (c) Steve Scherf et al.
# Submitted via: ExactAudioCopy v0.95a4
#
DISCID=880ad60b
DTITLE=Mariah Carey - Music Box (Latin Release)
DYEAR=1993
DGENRE=Dance
TTITLE0=DreamLover
TTITLE1=Hero
TTITLE2=Anytime You Need A Friend
TTITLE3=Music Box
TTITLE4=Now That I Know
TTITLE5=Never Forget You
TTITLE6=Without You
TTITLE7=Just To Hold You Once Again
TTITLE8=I've Been Thinking About You
TTITLE9=All I've Ever Wanted
TTITLE10=Heroe (Spanish Version)
EXTD=
EXTT0=
EXTT1=
EXTT2=
EXTT3=
EXTT4=
EXTT5=
EXTT6=
EXTT7=
EXTT8=
EXTT9=
EXTT10=In spanish
PLAYORDER=
